<?xml version="1.0" encoding="iso-8859-1"?>
<!-- Generator: Adobe Illustrator 19.0.0, SVG Export Plug-In . SVG Version: 6.00 Build 0)  -->
<svg version="1.1" id="Capa_1" xmlns="http://www.w3.org/2000/svg" xmlns:xlink="http://www.w3.org/1999/xlink" x="0px" y="0px"
	 viewBox="0 0 508 508" style="enable-background:new 0 0 508 508;" xml:space="preserve">
<path style="fill:#000000;" d="M448.3,160.1v326.7c0,11.8-9.4,21.2-21.2,21.2H80.9c-11.6,0-21.2-9.4-21.2-21.2V160.1H448.3z"/>
<g>
	<path style="fill:#000000;" d="M469.5,160.1h-431V67.3c0-1.1,0.9-2,2-2h426.9c1.1,0,2,0.9,2,2v92.8H469.5z"/>
	<path style="fill:#000000;" d="M187.2,65.3V37.1c0-2.9,2.4-5.3,5.3-5.3h123c2.9,0,5.3,2.4,5.3,5.3v28.3h31.8V37.1
		C352.6,16.7,336,0,315.5,0h-123c-20.4,0-37.1,16.6-37.1,37.1v28.3h31.8V65.3z"/>
</g>
<g>
	<path style="fill:#FFFFFF;" d="M146.9,210.7c-18.7,0-33.8,15.1-33.8,33.8v179.3c0,18.7,15.1,33.8,33.8,33.8s33.8-15.1,33.8-33.8
		V244.4C180.6,225.8,165.5,210.7,146.9,210.7z"/>
	<path style="fill:#FFFFFF;" d="M254,210.7c-18.7,0-33.8,15.1-33.8,33.8v179.3c0,18.7,15.1,33.8,33.8,33.8s33.8-15.1,33.8-33.8
		V244.4C287.8,225.8,272.7,210.7,254,210.7z"/>
	<path style="fill:#FFFFFF;" d="M361.1,210.7c-18.7,0-33.8,15.1-33.8,33.8v179.3c0,18.7,15.1,33.8,33.8,33.8
		c18.7,0,33.8-15.1,33.8-33.8V244.4C394.9,225.8,379.8,210.7,361.1,210.7z"/>
</g>
<rect x="59.7" y="160.1" style="fill:#000000;" width="388.5" height="15.8"/>
<g>
</g>
<g>
</g>
<g>
</g>
<g>
</g>
<g>
</g>
<g>
</g>
<g>
</g>
<g>
</g>
<g>
</g>
<g>
</g>
<g>
</g>
<g>
</g>
<g>
</g>
<g>
</g>
<g>
</g>
</svg>
